<?xml version="1.0" encoding="utf-8"?><!-- Uploaded to: SVG Repo, www.svgrepo.com, Generator: SVG Repo Mixer Tools -->
<svg width="24" height="24" viewBox="0 0 24 24" fill="none" xmlns="http://www.w3.org/2000/svg">
    <path d="M15 9.4V4C15 2.34315 13.6569 1 12 1C10.3431 1 9 2.34315 9 4V4.6M9 9V12C9 13.6569 10.3431 15 12 15C12.6352 15 13.2267 14.7921 13.7 14.4" stroke="currentColor" stroke-width="2" stroke-linecap="round"/>
    <path d="M17 11V12C17 14.7614 14.7614 17 12 17C11.1866 17 10.4203 16.8053 9.75 16.4649M7 11V12C7 12.3453 7.0441 12.6804 7.12676 13" stroke="currentColor" stroke-width="2" stroke-linecap="round"/>
    <path d="M12 17V21M8 21H16" stroke="currentColor" stroke-width="2" stroke-linecap="round"/>
    <path d="M3 3L21 21" stroke="currentColor" stroke-width="2" stroke-linecap="round"/>
</svg>